/* XPM */
static char *e3a1760ee4db425acd12b6034740875eHmwPXlcKWjStUmo3[] = {
/* columns rows colors chars-per-pixel */
"64 64 3 1 ",
"  c black",
". c #D65B0B",
"X c #F9DB7F",
/* pixels */
"................................................................",
"................................................................",
"................................................................",
"................................................................",
"....                                                        ....",
"....                                                        ....",
"....                                                        ....",
"....                                                        ....",
"....                                                        ....",
"....                                                        ....",
"....                                                        ....",
"....                                                        ....",
"....XXXXXXXX....                                            ....",
"....XXXXXXXX....                                            ....",
"....XXXXXXXX....                                            ....",
"....XXXXXXXX....                                            ....",
"....XXXXXXXX....XXXXXXXXXXXX....                            ....",
"....XXXXXXXX....XXXXXXXXXXXX....                            ....",
"....XXXXXXXX....XXXXXXXXXXXX....                            ....",
"....XXXXXXXX....XXXXXXXXXXXX....                            ....",
"....XXXXXXXX....XXXXXXXXXXXX....XXXXXXXXXXXX....            ....",
"....XXXXXXXX....XXXXXXXXXXXX....XXXXXXXXXXXX....            ....",
"....XXXXXXXX....XXXXXXXXXXXX....XXXXXXXXXXXX....            ....",
"....XXXXXXXX....XXXXXXXXXXXX....XXXXXXXXXXXX....            ....",
"....XXXXXXXX....XXXXXXXXXXXX....XXXXXXXXXXXX....XXXXXXXXXXXX....",
"....XXXXXXXX....XXXXXXXXXXXX....XXXXXXXXXXXX....XXXXXXXXXXXX....",
"....XXXXXXXX....XXXXXXXXXXXX....XXXXXXXXXXXX....XXXXXXXXXXXX....",
"....XXXXXXXX....XXXXXXXXXXXX....XXXXXXXXXXXX....XXXXXXXXXXXX....",
"....XXXXXXXX....XXXXXXXXXXXX....XXXXXXXXXXXX....XXXXXXXXXXXX....",
"....XXXXXXXX....XXXXXXXXXXXX....XXXXXXXXXXXX....XXXXXXXXXXXX....",
"....XXXXXXXX....XXXXXXXXXXXX....XXXXXXXXXXXX....XXXXXXXXXXXX....",
"....XXXXXXXX....XXXXXXXXXXXX....XXXXXXXXXXXX....XXXXXXXXXXXX....",
"....XXXXXXXX....XXXXXXXXXXXX....XXXXXXXXXXXX....XXXXXXXXXXXX....",
"....XXXXXXXX....XXXXXXXXXXXX....XXXXXXXXXXXX....XXXXXXXXXXXX....",
"....XXXXXXXX....XXXXXXXXXXXX....XXXXXXXXXXXX....XXXXXXXXXXXX....",
"....XXXXXXXX....XXXXXXXXXXXX....XXXXXXXXXXXX....XXXXXXXXXXXX....",
"....XXXXXXXX....XXXXXXXXXXXX....XXXXXXXXXXXX....XXXXXXXXXXXX....",
"....XXXXXXXX....XXXXXXXXXXXX....XXXXXXXXXXXX....XXXXXXXXXXXX....",
"....XXXXXXXX....XXXXXXXXXXXX....XXXXXXXXXXXX....XXXXXXXXXXXX....",
"....XXXXXXXX....XXXXXXXXXXXX....XXXXXXXXXXXX....XXXXXXXXXXXX....",
"....XXXXXXXX....XXXXXXXXXXXX....XXXXXXXXXXXX....XXXXXXXXXXXX....",
"....XXXXXXXX....XXXXXXXXXXXX....XXXXXXXXXXXX....XXXXXXXXXXXX....",
"....XXXXXXXX....XXXXXXXXXXXX....XXXXXXXXXXXX....XXXXXXXXXXXX....",
"....XXXXXXXX....XXXXXXXXXXXX....XXXXXXXXXXXX....XXXXXXXXXXXX....",
"....XXXXXXXX....XXXXXXXXXXXX....XXXXXXXXXXXX....XXXXXXXXXXXX....",
"....XXXXXXXX....XXXXXXXXXXXX....XXXXXXXXXXXX....XXXXXXXXXXXX....",
"....XXXXXXXX....XXXXXXXXXXXX....XXXXXXXXXXXX....XXXXXXXXXXXX....",
"....XXXXXXXX....XXXXXXXXXXXX....XXXXXXXXXXXX....XXXXXXXXXXXX....",
"....XXXXXXXX....XXXXXXXXXXXX....XXXXXXXXXXXX....XXXXXXXXXXXX....",
"....XXXXXXXX....XXXXXXXXXXXX....XXXXXXXXXXXX....XXXXXXXXXXXX....",
"....XXXXXXXX....XXXXXXXXXXXX....XXXXXXXXXXXX....XXXXXXXXXXXX....",
"....XXXXXXXX....XXXXXXXXXXXX....XXXXXXXXXXXX....XXXXXXXXXXXX....",
"....XXXXXXXX....XXXXXXXXXXXX....XXXXXXXXXXXX....XXXXXXXXXXXX....",
"....XXXXXXXX....XXXXXXXXXXXX....XXXXXXXXXXXX....XXXXXXXXXXXX....",
"....XXXXXXXX....XXXXXXXXXXXX....XXXXXXXXXXXX....XXXXXXXXXXXX....",
"....XXXXXXXX....XXXXXXXXXXXX....XXXXXXXXXXXX....XXXXXXXXXXXX....",
"....XXXXXXXX....XXXXXXXXXXXX....XXXXXXXXXXXX....XXXXXXXXXXXX....",
"....XXXXXXXX....XXXXXXXXXXXX....XXXXXXXXXXXX....XXXXXXXXXXXX....",
"....XXXXXXXX....XXXXXXXXXXXX....XXXXXXXXXXXX....XXXXXXXXXXXX....",
"....XXXXXXXX....XXXXXXXXXXXX....XXXXXXXXXXXX....XXXXXXXXXXXX....",
"................................................................",
"................................................................",
"................................................................",
"................................................................"
};
