/* XPM */
static char *_6d17c3cf7874ebc8e289656feefadfaEWqjKRLsoVQS8Orc[] = {
/* columns rows colors chars-per-pixel */
"64 64 5 1 ",
"  c black",
". c #FF4300",
"X c #D0B802",
"o c #F9DB7F",
"O c white",
/* pixels */
"oooooooooooooooooooooooooooooooooooooooooooooooooooooooooooooooo",
"oooooooooooooooooooooooooooooooooooooooooooooooooooooooooooooooo",
"oooooooooooooooooooooooooooooooooooooooooooooooooooooooooooooooo",
"oooooooooooooooooooooooooooooooooooooooooooooooooooooooooooooooo",
"oooooooooooooooooooooooooooooooooooooooooooooooooooooooooooooooo",
"oooooooooooooooooooooooooooooooooooooooooooooooooooooooooooooooo",
"oooooooooooooooooooooooooooooooooooooooooooooooooooooooooooooooo",
"oooooooooooooooooooooooooooooooooooooooooooooooooooooooooooooooo",
"ooooooooooooooooooooXXXXOOOOooooooooOOOOXXXXoooooooooooooooooooo",
"ooooooooooooooooooooXXXXOOOOooooooooOOOOXXXXoooooooooooooooooooo",
"ooooooooooooooooooooXXXXOOOOooooooooOOOOXXXXoooooooooooooooooooo",
"ooooooooooooooooooooXXXXOOOOooooooooOOOOXXXXoooooooooooooooooooo",
"ooooooooooooooooOOOO........XXXXXXXX........OOOOoooooooooooooooo",
"ooooooooooooooooOOOO........XXXXXXXX........OOOOoooooooooooooooo",
"ooooooooooooooooOOOO........XXXXXXXX........OOOOoooooooooooooooo",
"ooooooooooooooooOOOO........XXXXXXXX........OOOOoooooooooooooooo",
"ooooooooooooXXXX................................XXXXoooooooooooo",
"ooooooooooooXXXX................................XXXXoooooooooooo",
"ooooooooooooXXXX................................XXXXoooooooooooo",
"ooooooooooooXXXX................................XXXXoooooooooooo",
"ooooooooooooOOOO................................OOOOoooooooooooo",
"ooooooooooooOOOO................................OOOOoooooooooooo",
"ooooooooooooOOOO................................OOOOoooooooooooo",
"ooooooooooooOOOO................................OOOOoooooooooooo",
"ooooooooooooXXXX................................XXXXoooooooooooo",
"ooooooooooooXXXX................................XXXXoooooooooooo",
"ooooooooooooXXXX................................XXXXoooooooooooo",
"ooooooooooooXXXX................................XXXXoooooooooooo",
"ooooooooooooOOOO................................OOOOoooooooooooo",
"ooooooooooooOOOO................................OOOOoooooooooooo",
"ooooooooooooOOOO................................OOOOoooooooooooo",
"ooooooooooooOOOO................................OOOOoooooooooooo",
"ooooooooooooooooXXXX........................XXXXoooooooooooooooo",
"ooooooooooooooooXXXX........................XXXXoooooooooooooooo",
"ooooooooooooooooXXXX........................XXXXoooooooooooooooo",
"ooooooooooooooooXXXX........................XXXXoooooooooooooooo",
"ooooooooooooooooooooOOOO................OOOOoooooooooooooooooooo",
"ooooooooooooooooooooOOOO................OOOOoooooooooooooooooooo",
"ooooooooooooooooooooOOOO................OOOOoooooooooooooooooooo",
"ooooooooooooooooooooOOOO................OOOOoooooooooooooooooooo",
"ooooooooooooooooooooooooXXXX........XXXXoooooooooooooooooooooooo",
"ooooooooooooooooooooooooXXXX........XXXXoooooooooooooooooooooooo",
"ooooooooooooooooooooooooXXXX........XXXXoooooooooooooooooooooooo",
"ooooooooooooooooooooooooXXXX........XXXXoooooooooooooooooooooooo",
"ooooooooooooooooooooooooooooXXXXXXXXoooooooooooooooooooooooooooo",
"ooooooooooooooooooooooooooooXXXXXXXXoooooooooooooooooooooooooooo",
"ooooooooooooooooooooooooooooXXXXXXXXoooooooooooooooooooooooooooo",
"ooooooooooooooooooooooooooooXXXXXXXXoooooooooooooooooooooooooooo",
"oooooooooooooooooooooooooooooooooooooooooooooooooooooooooooooooo",
"oooooooooooooooooooooooooooooooooooooooooooooooooooooooooooooooo",
"oooooooooooooooooooooooooooooooooooooooooooooooooooooooooooooooo",
"oooooooooooooooooooooooooooooooooooooooooooooooooooooooooooooooo",
"oooooooooooooooooooo                        oooooooooooooooooooo",
"oooooooooooooooooooo                        oooooooooooooooooooo",
"oooooooooooooooooooo                        oooooooooooooooooooo",
"oooooooooooooooooooo                        oooooooooooooooooooo",
"oooooooooooooooooooooooooooo        oooooooooooooooooooooooooooo",
"oooooooooooooooooooooooooooo        oooooooooooooooooooooooooooo",
"oooooooooooooooooooooooooooooooooooooooooooooooooooooooooooooooo",
"oooooooooooooooooooooooooooooooooooooooooooooooooooooooooooooooo",
"oooooooooooooooooooooooooooooooooooooooooooooooooooooooooooooooo",
"oooooooooooooooooooooooooooooooooooooooooooooooooooooooooooooooo",
"oooooooooooooooooooooooooooooooooooooooooooooooooooooooooooooooo",
"oooooooooooooooooooooooooooooooooooooooooooooooooooooooooooooooo"
};
