/* XPM */
static char *result[] = {
/* columns rows colors chars-per-pixel */
"64 64 4 1 ",
"  c #D65B0B",
". c #74FF00",
"X c #D0B802",
"o c #F9DB7F",
/* pixels */
"oooooooooooooooooooooooooooooooooooooooooooooooooooooooooooooooo",
"oooooooooooooooooooooooooooooooooooooooooooooooooooooooooooooooo",
"oooooooooooooooooooooooooooooooooooooooooooooooooooooooooooooooo",
"oooooooooooooooooooooooooooooooooooooooooooooooooooooooooooooooo",
"oooooooooooooooooooo................oooooooooooooooooooooooooooo",
"oooooooooooooooooooo................oooooooooooooooooooooooooooo",
"oooooooooooooooooooo................oooooooooooooooooooooooooooo",
"oooooooooooooooooooo................oooooooooooooooooooooooooooo",
"oooooooooooo....................            oooooooooooooooooooo",
"oooooooooooo....................            oooooooooooooooooooo",
"oooooooooooo....................            oooooooooooooooooooo",
"oooooooooooo....................            oooooooooooooooooooo",
"oooo............XXXX........                    oooooooooooooooo",
"oooo............XXXX........                    oooooooooooooooo",
"oooo............XXXX........                    oooooooooooooooo",
"oooo............XXXX........                    oooooooooooooooo",
"................XXXXXXXX                    oooooooooooooooooooo",
"................XXXXXXXX                    oooooooooooooooooooo",
"................XXXXXXXX                    oooooooooooooooooooo",
"................XXXXXXXX                    oooooooooooooooooooo",
"....oooo........XXXXXXXXXXXX    XXXX....XXXXoooooooooooooooooooo",
"....oooo........XXXXXXXXXXXX    XXXX....XXXXoooooooooooooooooooo",
"....oooo........XXXXXXXXXXXX    XXXX....XXXXoooooooooooooooooooo",
"....oooo........XXXXXXXXXXXX    XXXX....XXXXoooooooooooooooooooo",
"oooooooo....        XXXXXXXX    XXXX    XXXXXXXXXXXXoooooooooooo",
"oooooooo....        XXXXXXXX    XXXX    XXXXXXXXXXXXoooooooooooo",
"oooooooo....        XXXXXXXX    XXXX    XXXXXXXXXXXXoooooooooooo",
"oooooooo....        XXXXXXXX    XXXX    XXXXXXXXXXXXoooooooooooo",
"oooooooooooo            XXXXXXXXXXXXXXXXXXXXXXXXoooo    oooooooo",
"oooooooooooo            XXXXXXXXXXXXXXXXXXXXXXXXoooo    oooooooo",
"oooooooooooo            XXXXXXXXXXXXXXXXXXXXXXXXoooo    oooooooo",
"oooooooooooo            XXXXXXXXXXXXXXXXXXXXXXXXoooo    oooooooo",
"oooooooooooooooo................XXXXXXXXXXXXXXXXoooo    oooooooo",
"oooooooooooooooo................XXXXXXXXXXXXXXXXoooo    oooooooo",
"oooooooooooooooo................XXXXXXXXXXXXXXXXoooo    oooooooo",
"oooooooooooooooo................XXXXXXXXXXXXXXXXoooo    oooooooo",
"oooooooo....        ........XXXXXXXXXXXX        XXXX    oooooooo",
"oooooooo....        ........XXXXXXXXXXXX        XXXX    oooooooo",
"oooooooo....        ........XXXXXXXXXXXX        XXXX    oooooooo",
"oooooooo....        ........XXXXXXXXXXXX        XXXX    oooooooo",
"oooooooo                    XXXXXXXXXXXX....    XXXX    oooooooo",
"oooooooo                    XXXXXXXXXXXX....    XXXX    oooooooo",
"oooooooo                    XXXXXXXXXXXX....    XXXX    oooooooo",
"oooooooo                    XXXXXXXXXXXX....    XXXX    oooooooo",
"oooo....                    XXXXXXXX........    oooo    oooooooo",
"oooo....                    XXXXXXXX........    oooo    oooooooo",
"oooo....                    XXXXXXXX........    oooo    oooooooo",
"oooo....                    XXXXXXXX........    oooo    oooooooo",
"oooo........                ............    oooooooo    oooooooo",
"oooo........                ............    oooooooo    oooooooo",
"oooo........                ............    oooooooo    oooooooo",
"oooo........                ............    oooooooo    oooooooo",
"        ....................                oooooooo    oooooooo",
"        ....................                oooooooo    oooooooo",
"        ....................                oooooooo    oooooooo",
"        ....................                oooooooo    oooooooo",
"            ................................        oooooooooooo",
"            ................................        oooooooooooo",
"            ................................        oooooooooooo",
"            ................................        oooooooooooo",
"oooo                oooooooooooooooo            oooooooooooooooo",
"oooo                oooooooooooooooo            oooooooooooooooo",
"oooo                oooooooooooooooo            oooooooooooooooo",
"oooo                oooooooooooooooo            oooooooooooooooo"
};
