/* XPM */
static char *c4ce50b4244e4c84a3d474e6d1d0c2a64cW5bXhmDkyhw7zo[] = {
/* columns rows colors chars-per-pixel */
"64 64 4 1 ",
"  c #D65B0B",
". c #74FF00",
"X c #D0B802",
"o c #F9DB7F",
/* pixels */
"oooooooooooooooooooooooooooooooooooooooooooooooooooooooooooooooo",
"oooooooooooooooooooooooooooooooooooooooooooooooooooooooooooooooo",
"oooooooooooooooooooooooooooooooooooooooooooooooooooooooooooooooo",
"oooooooooooooooooooooooooooooooooooooooooooooooooooooooooooooooo",
"oooooooooooooooooooo........................oooooooooooooooooooo",
"oooooooooooooooooooo........................oooooooooooooooooooo",
"oooooooooooooooooooo........................oooooooooooooooooooo",
"oooooooooooooooooooo........................oooooooooooooooooooo",
"oooooooooooooooo................................oooooooooooooooo",
"oooooooooooooooo................................oooooooooooooooo",
"oooooooooooooooo................................oooooooooooooooo",
"oooooooooooooooo................................oooooooooooooooo",
"ooooooooXXXXoooo....                        ....ooooXXXXoooooooo",
"ooooooooXXXXoooo....                        ....ooooXXXXoooooooo",
"ooooooooXXXXoooo....                        ....ooooXXXXoooooooo",
"ooooooooXXXXoooo....                        ....ooooXXXXoooooooo",
"ooooooooXXXXoooo                                ooooXXXXoooooooo",
"ooooooooXXXXoooo                                ooooXXXXoooooooo",
"ooooooooXXXXoooo                                ooooXXXXoooooooo",
"ooooooooXXXXoooo                                ooooXXXXoooooooo",
"ooooooooXXXXXXXX    XXXX....XXXXXXXX....XXXX    XXXXXXXXoooooooo",
"ooooooooXXXXXXXX    XXXX....XXXXXXXX....XXXX    XXXXXXXXoooooooo",
"ooooooooXXXXXXXX    XXXX....XXXXXXXX....XXXX    XXXXXXXXoooooooo",
"ooooooooXXXXXXXX    XXXX....XXXXXXXX....XXXX    XXXXXXXXoooooooo",
"ooooooooooooXXXX    XXXX    XXXXXXXX    XXXX    XXXXoooooooooooo",
"ooooooooooooXXXX    XXXX    XXXXXXXX    XXXX    XXXXoooooooooooo",
"ooooooooooooXXXX    XXXX    XXXXXXXX    XXXX    XXXXoooooooooooo",
"ooooooooooooXXXX    XXXX    XXXXXXXX    XXXX    XXXXoooooooooooo",
"ooooooooooooXXXXXXXXXXXXXXXXXXXXXXXXXXXXXXXXXXXXXXXX    oooooooo",
"ooooooooooooXXXXXXXXXXXXXXXXXXXXXXXXXXXXXXXXXXXXXXXX    oooooooo",
"ooooooooooooXXXXXXXXXXXXXXXXXXXXXXXXXXXXXXXXXXXXXXXX    oooooooo",
"ooooooooooooXXXXXXXXXXXXXXXXXXXXXXXXXXXXXXXXXXXXXXXX    oooooooo",
"oooooooooooo........XXXXXXXX        XXXXXXXX........    oooooooo",
"oooooooooooo........XXXXXXXX        XXXXXXXX........    oooooooo",
"oooooooooooo........XXXXXXXX        XXXXXXXX........    oooooooo",
"oooooooooooo........XXXXXXXX        XXXXXXXX........    oooooooo",
"oooo                    XXXXXXXXXXXXXXXX........            oooo",
"oooo                    XXXXXXXXXXXXXXXX........            oooo",
"oooo                    XXXXXXXXXXXXXXXX........            oooo",
"oooo                    XXXXXXXXXXXXXXXX........            oooo",
"        XXXX                ....................XXXX        oooo",
"        XXXX                ....................XXXX        oooo",
"        XXXX                ....................XXXX        oooo",
"        XXXX                ....................XXXX        oooo",
"    XXXXXXXXXXXX        XXXX        ........XXXXXXXXXXXX    oooo",
"    XXXXXXXXXXXX        XXXX        ........XXXXXXXXXXXX    oooo",
"    XXXXXXXXXXXX        XXXX        ........XXXXXXXXXXXX    oooo",
"    XXXXXXXXXXXX        XXXX        ........XXXXXXXXXXXX    oooo",
"        XXXX            XXXX....                XXXXXXXXXXXXoooo",
"        XXXX            XXXX....                XXXXXXXXXXXXoooo",
"        XXXX            XXXX....                XXXXXXXXXXXXoooo",
"        XXXX            XXXX....                XXXXXXXXXXXXoooo",
"        XXXX            XXXX        ................XXXXoooooooo",
"        XXXX            XXXX        ................XXXXoooooooo",
"        XXXX            XXXX        ................XXXXoooooooo",
"        XXXX            XXXX        ................XXXXoooooooo",
"                            ....................oooooooooooooooo",
"                            ....................oooooooooooooooo",
"                            ....................oooooooooooooooo",
"                            ....................oooooooooooooooo",
"ooooXXXXXXXXXXXXXXXXXXXX    oooooooo            oooooooooooooooo",
"ooooXXXXXXXXXXXXXXXXXXXX    oooooooo            oooooooooooooooo",
"ooooXXXXXXXXXXXXXXXXXXXX    oooooooo            oooooooooooooooo",
"ooooXXXXXXXXXXXXXXXXXXXX    oooooooo            oooooooooooooooo"
};
