/* XPM */
static char *result[] = {
/* columns rows colors chars-per-pixel */
"64 64 4 1 ",
"  c #D65B0B",
". c #74FF00",
"X c #D0B802",
"o c #F9DB7F",
/* pixels */
"oooooooooooooooooooooooooooooooooooooooooooooooooooooooooooooooo",
"oooooooooooooooooooooooooooooooooooooooooooooooooooooooooooooooo",
"oooooooooooooooooooooooooooooooooooooooooooooooooooooooooooooooo",
"oooooooooooooooooooooooooooooooooooooooooooooooooooooooooooooooo",
"oooooooooooooooooooooooooooo................oooooooooooooooooooo",
"oooooooooooooooooooooooooooo................oooooooooooooooooooo",
"oooooooooooooooooooooooooooo................oooooooooooooooooooo",
"oooooooooooooooooooooooooooo................oooooooooooooooooooo",
"oooooooooooooooooooo            ....................oooooooooooo",
"oooooooooooooooooooo            ....................oooooooooooo",
"oooooooooooooooooooo            ....................oooooooooooo",
"oooooooooooooooooooo            ....................oooooooooooo",
"oooooooooooooooo                    ........XXXX............oooo",
"oooooooooooooooo                    ........XXXX............oooo",
"oooooooooooooooo                    ........XXXX............oooo",
"oooooooooooooooo                    ........XXXX............oooo",
"oooooooooooooooooooo                    XXXXXXXX................",
"oooooooooooooooooooo                    XXXXXXXX................",
"oooooooooooooooooooo                    XXXXXXXX................",
"oooooooooooooooooooo                    XXXXXXXX................",
"ooooooooooooooooooooXXXX....XXXX    XXXXXXXXXXXX........oooo....",
"ooooooooooooooooooooXXXX....XXXX    XXXXXXXXXXXX........oooo....",
"ooooooooooooooooooooXXXX....XXXX    XXXXXXXXXXXX........oooo....",
"ooooooooooooooooooooXXXX....XXXX    XXXXXXXXXXXX........oooo....",
"ooooooooooooXXXXXXXXXXXX    XXXX    XXXXXXXX        ....oooooooo",
"ooooooooooooXXXXXXXXXXXX    XXXX    XXXXXXXX        ....oooooooo",
"ooooooooooooXXXXXXXXXXXX    XXXX    XXXXXXXX        ....oooooooo",
"ooooooooooooXXXXXXXXXXXX    XXXX    XXXXXXXX        ....oooooooo",
"oooooooo    ooooXXXXXXXXXXXXXXXXXXXXXXXX            oooooooooooo",
"oooooooo    ooooXXXXXXXXXXXXXXXXXXXXXXXX            oooooooooooo",
"oooooooo    ooooXXXXXXXXXXXXXXXXXXXXXXXX            oooooooooooo",
"oooooooo    ooooXXXXXXXXXXXXXXXXXXXXXXXX            oooooooooooo",
"oooooooo    ooooXXXXXXXXXXXXXXXX................oooooooooooooooo",
"oooooooo    ooooXXXXXXXXXXXXXXXX................oooooooooooooooo",
"oooooooo    ooooXXXXXXXXXXXXXXXX................oooooooooooooooo",
"oooooooo    ooooXXXXXXXXXXXXXXXX................oooooooooooooooo",
"oooooooo    XXXX        XXXXXXXXXXXX........        ....oooooooo",
"oooooooo    XXXX        XXXXXXXXXXXX........        ....oooooooo",
"oooooooo    XXXX        XXXXXXXXXXXX........        ....oooooooo",
"oooooooo    XXXX        XXXXXXXXXXXX........        ....oooooooo",
"oooooooo    XXXX    ....XXXXXXXXXXXX                    oooooooo",
"oooooooo    XXXX    ....XXXXXXXXXXXX                    oooooooo",
"oooooooo    XXXX    ....XXXXXXXXXXXX                    oooooooo",
"oooooooo    XXXX    ....XXXXXXXXXXXX                    oooooooo",
"oooooooo    oooo    ........XXXXXXXX                    ....oooo",
"oooooooo    oooo    ........XXXXXXXX                    ....oooo",
"oooooooo    oooo    ........XXXXXXXX                    ....oooo",
"oooooooo    oooo    ........XXXXXXXX                    ....oooo",
"oooooooo    oooooooo    ............                ........oooo",
"oooooooo    oooooooo    ............                ........oooo",
"oooooooo    oooooooo    ............                ........oooo",
"oooooooo    oooooooo    ............                ........oooo",
"oooooooo    oooooooo                ....................        ",
"oooooooo    oooooooo                ....................        ",
"oooooooo    oooooooo                ....................        ",
"oooooooo    oooooooo                ....................        ",
"oooooooooooo        ................................            ",
"oooooooooooo        ................................            ",
"oooooooooooo        ................................            ",
"oooooooooooo        ................................            ",
"oooooooooooooooo            oooooooooooooooo                oooo",
"oooooooooooooooo            oooooooooooooooo                oooo",
"oooooooooooooooo            oooooooooooooooo                oooo",
"oooooooooooooooo            oooooooooooooooo                oooo"
};
