/* XPM */
static char *b60dacef40124be0bc34f637cfb7cc82HCUQfL7RmnXnl20y[] = {
/* columns rows colors chars-per-pixel */
"64 64 3 1 ",
"  c black",
". c #D65B0B",
"X c #F9DB7F",
/* pixels */
"XXXXXXXXXXXXXXXXXXXXXXXXXXXXXXXXXXXXXXXXXXXXXXXXXXXXXXXXXXXXXXXX",
"XXXXXXXXXXXXXXXXXXXXXXXXXXXXXXXXXXXXXXXXXXXXXXXXXXXXXXXXXXXXXXXX",
"XXXXXX........XXXXXXXXXXXXXXXXXXXXXXXXXXXXXXXXXXXXXXXXXXXXXXXXXX",
"XXXXXX........XXXXXXXXXXXXXXXXXXXXXXXXXXXXXXXXXXXXXXXXXXXXXXXXXX",
"XXXXXX..............  XXXXXXXXXXXXXXXXXXXXXXXXXXXXXXXXXXXXXXXXXX",
"XXXXXX..............  XXXXXXXXXXXXXXXXXXXXXXXXXXXXXXXXXXXXXXXXXX",
"XXXX................    XXXXXXXXXXXXXXXXXXXXXXXXXXXXXXXXXXXXXXXX",
"XXXX................    XXXXXXXXXXXXXXXXXXXXXXXXXXXXXXXXXXXXXXXX",
"XX....XX..............  XXXXXXXXXXXXXXXXXXXXXXXXXXXXXXXXXXXXXXXX",
"XX....XX..............  XXXXXXXXXXXXXXXXXXXXXXXXXXXXXXXXXXXXXXXX",
"..XXXX................      XXXXXXXXXXXXXXXXXXXXXXXXXXXXXXXXXXXX",
"..XXXX................      XXXXXXXXXXXXXXXXXXXXXXXXXXXXXXXXXXXX",
"..XX..................  ....  XXXXXXXXXXXXXXXXXXXXXXXXXXXXXXXXXX",
"..XX..................  ....  XXXXXXXXXXXXXXXXXXXXXXXXXXXXXXXXXX",
"..XX..................    XX............        XXXXXXXXXXXXXXXX",
"..XX..................    XX............        XXXXXXXXXXXXXXXX",
"..XX....................  XX..................    XXXXXXXXXXXXXX",
"..XX....................  XX..................    XXXXXXXXXXXXXX",
"..XX..................    XX....................    XXXXXXXXXXXX",
"..XX..................    XX....................    XXXXXXXXXXXX",
"..XX................    XXXX......................    XXXXXXXXXX",
"..XX................    XXXX......................    XXXXXXXXXX",
"....................  XXXX..........................    XXXXXXXX",
"....................  XXXX..........................    XXXXXXXX",
"....................  XX............................    XXXXXXXX",
"....................  XX............................    XXXXXXXX",
"....................  XX..............................    XXXXXX",
"....................  XX..............................    XXXXXX",
"XX..................  XX..........................  ..    XXXXXX",
"XX..................  XX..........................  ..    XXXXXX",
"XXXX................  XX..........................        XXXXXX",
"XXXX................  XX..........................        XXXXXX",
"XX..................  XX............  ..........  ..      XXXXXX",
"XX..................  XX............  ..........  ..      XXXXXX",
"XX..................  XX............  ........            XXXXXX",
"XX..................  XX............  ........            XXXXXX",
"XX..................  XX............    ......            XXXXXX",
"XX..................  XX............    ......            XXXXXX",
"XX..................  ..............    ........    ..    XXXXXX",
"XX..................  ..............    ........    ..    XXXXXX",
"....................  ..............    ........    ..    XXXXXX",
"....................  ..............    ........    ..    XXXXXX",
"....................    ............      ......    ..    XXXXXX",
"....................    ............      ......    ..    XXXXXX",
"....................................      ......    ..    XXXXXX",
"....................................      ......    ..    XXXXXX",
"XX......................................    ....    ..    XXXXXX",
"XX......................................    ....    ..    XXXXXX",
"........................................    ....  ....  XXXXXXXX",
"........................................    ....  ....  XXXXXXXX",
"..............................................    ..    XXXXXXXX",
"..............................................    ..    XXXXXXXX",
"..........................................      ....XXXXXXXXXXXX",
"..........................................      ....XXXXXXXXXXXX",
"XX....................................          XXXXXXXXXXXXXXXX",
"XX....................................          XXXXXXXXXXXXXXXX",
"XXXX........................  ..............    XXXXXXXXXXXXXXXX",
"XXXX........................  ..............    XXXXXXXXXXXXXXXX",
"XXXXXX....................    ................                XX",
"XXXXXX....................    ................                XX",
"XXXX                                                        XXXX",
"XXXX                                                        XXXX",
"                                                  XXXXXXXXXXXXXX",
"                                                  XXXXXXXXXXXXXX"
};
